<?xml version="1.0" standalone="no"?>
<!DOCTYPE svg PUBLIC "-//W3C//DTD SVG 20010904//EN"
 "http://www.w3.org/TR/2001/REC-SVG-20010904/DTD/svg10.dtd">
<svg version="1.0" xmlns="http://www.w3.org/2000/svg"
 width="1000.000000pt" height="1000.000000pt" viewBox="0 0 1000.000000 1000.000000"
 preserveAspectRatio="xMidYMid meet">

<g transform="translate(0.000000,1000.000000) scale(0.100000,-0.100000)"
fill="#000000" stroke="none">
<path d="M5120 8968 c-71 -37 -1850 -1016 -2150 -1184 -148 -82 -134 -37 -140
-457 l-5 -361 -55 3 c-206 9 -401 -189 -473 -480 -39 -155 -54 -466 -37 -776
15 -264 11 -293 -49 -351 -20 -20 -63 -50 -95 -67 -99 -50 -128 -104 -85 -159
65 -83 294 45 375 209 l29 60 1 430 c1 429 6 508 40 640 33 126 104 238 181
286 36 22 157 52 168 41 3 -3 5 -434 5 -958 l0 -953 22 -24 c13 -14 196 -120
408 -237 212 -116 391 -217 397 -224 10 -9 10 -26 -4 -81 -14 -60 -16 -153
-18 -673 -1 -424 -5 -606 -13 -614 -13 -13 -36 -13 -167 1 -152 17 -231 16
-260 -3 -49 -32 -42 -101 12 -130 57 -29 440 -65 496 -47 50 17 85 59 96 116
5 28 11 339 12 693 3 468 7 642 15 642 6 0 263 -140 570 -311 307 -172 607
-338 665 -370 70 -39 118 -59 140 -59 34 0 70 19 534 275 121 67 310 172 420
232 384 213 584 321 602 327 17 5 18 -7 20 -192 2 -192 11 -361 34 -687 14
-206 9 -486 -10 -509 -12 -14 -31 -16 -116 -14 -110 3 -128 -3 -146 -50 -12
-32 14 -75 59 -96 44 -21 182 -38 240 -30 52 8 102 40 121 78 30 62 41 476 21
759 -6 78 -17 291 -25 472 -8 182 -16 338 -17 349 -4 22 13 33 267 171 310
170 359 199 372 225 10 20 13 231 13 978 l0 952 68 -1 c37 0 97 -3 135 -8 78
-8 103 -27 118 -87 6 -22 14 -287 18 -609 8 -617 7 -613 64 -673 54 -58 214
-110 364 -119 107 -7 146 5 169 49 18 36 7 75 -28 97 -12 7 -78 22 -146 32
-164 25 -197 35 -220 64 -19 23 -20 46 -20 517 -1 514 -8 629 -43 723 -25 67
-87 138 -139 159 -48 19 -210 39 -283 34 l-52 -3 -3 351 c-2 349 -2 351 -25
372 -12 12 -274 161 -582 333 -308 171 -822 457 -1143 635 -321 179 -596 327
-611 330 -20 4 -50 -6 -111 -38z m230 -275 c63 -76 225 -268 360 -428 419
-496 490 -582 490 -593 0 -7 -307 -11 -980 -12 -713 0 -980 2 -980 10 0 6 143
179 318 383 175 205 395 463 490 575 96 111 177 202 180 202 4 0 59 -62 122
-137z m-471 -40 c-19 -24 -306 -363 -588 -693 -129 -151 -241 -281 -249 -287
-12 -10 -126 -13 -494 -13 -263 0 -478 3 -478 8 0 4 242 140 537 302 295 162
590 325 657 362 67 36 231 127 366 202 135 74 249 135 254 136 5 0 2 -8 -5
-17z m1231 -293 c837 -464 1205 -669 1225 -684 18 -14 -28 -15 -451 -16 -362
0 -474 3 -485 13 -28 22 -809 955 -809 966 0 6 15 2 33 -8 17 -11 237 -133
487 -271z m-2146 -848 c2 -4 -28 -80 -68 -167 -40 -88 -259 -567 -486 -1065
-227 -498 -416 -909 -421 -914 -5 -6 -9 437 -9 1065 0 592 3 1079 7 1082 9 10
971 9 977 -1z m2302 -5 c3 -3 -26 -74 -64 -159 -85 -186 -319 -701 -551 -1208
-94 -206 -231 -506 -304 -667 -72 -161 -136 -293 -140 -293 -4 0 -17 21 -29
48 -11 26 -132 295 -268 597 -548 1218 -750 1670 -750 1678 0 3 10 7 23 9 37
6 2077 1 2083 -5z m1172 -1062 c1 -590 -2 -1065 -6 -1060 -10 12 -131 279
-602 1330 -81 182 -191 427 -244 544 -53 118 -99 225 -102 238 l-6 23 478 -2
479 -3 3 -1070z m-793 330 c141 -313 276 -613 300 -665 24 -52 116 -259 205
-458 88 -200 172 -387 185 -415 39 -87 75 -169 75 -173 0 -2 -470 -4 -1045 -4
-575 0 -1045 2 -1045 5 0 9 865 1906 995 2182 33 70 59 113 64 107 5 -5 125
-265 266 -579z m-2565 548 c15 -33 225 -501 414 -920 456 -1016 596 -1331 596
-1337 0 -3 -466 -6 -1035 -6 -657 0 -1035 4 -1035 10 0 9 52 124 514 1135 106
231 266 583 356 782 91 200 168 363 171 363 3 0 12 -12 19 -27z m1058 -2990
c1 -315 -1 -573 -5 -573 -13 0 -2052 1135 -2053 1143 0 4 462 6 1028 5 l1027
-3 3 -572z m2206 568 c-7 -7 -1270 -705 -1913 -1057 -74 -40 -138 -71 -142
-68 -10 6 -12 1117 -2 1127 3 4 470 7 1037 7 607 0 1026 -4 1020 -9z"/>
<path d="M4812 7149 c-12 -5 -27 -20 -34 -34 -24 -52 34 -111 87 -87 70 32 20
148 -53 121z"/>
<path d="M5380 7153 c-44 -16 -53 -77 -17 -111 67 -63 147 29 82 93 -24 25
-36 28 -65 18z"/>
<path d="M5020 6432 c-49 -24 -66 -62 -45 -102 20 -39 63 -60 124 -60 42 0 56
5 83 28 53 48 40 110 -29 139 -44 18 -91 16 -133 -5z"/>
<path d="M5002 3192 l-24 -4 4 -186 c3 -159 6 -192 22 -222 76 -143 249 -183
366 -83 76 66 84 92 88 306 l4 187 -30 0 -30 0 -4 -182 c-3 -208 -9 -229 -80
-276 -82 -54 -189 -31 -246 53 -21 29 -22 43 -22 217 0 197 0 198 -48 190z"/>
<path d="M4342 2919 l3 -274 33 -3 32 -3 0 120 0 121 83 0 82 0 80 -96 c44
-52 89 -106 100 -120 15 -17 31 -24 58 -24 20 0 37 2 37 5 0 3 -43 56 -96 117
-91 108 -95 113 -72 121 63 23 94 45 116 82 40 69 20 146 -52 199 -25 19 -44
21 -217 25 l-189 3 2 -273z m368 193 c48 -23 63 -79 33 -120 -34 -45 -58 -52
-200 -52 l-133 0 0 95 0 95 133 0 c106 0 139 -4 167 -18z"/>
<path d="M5592 2918 l3 -273 30 0 30 0 5 210 5 210 40 -49 c22 -27 65 -77 95
-111 30 -33 93 -107 140 -163 61 -72 91 -101 108 -102 l22 0 0 275 0 275 -30
0 -30 0 -2 -215 -3 -215 -80 93 c-44 52 -127 148 -185 215 -77 91 -110 122
-127 122 l-23 0 2 -272z"/>
<path d="M3425 2128 c-3 -7 -4 -159 -3 -338 l3 -325 35 0 35 0 5 150 5 150 49
0 49 0 17 -52 c24 -73 64 -128 129 -174 121 -87 292 -104 421 -42 193 91 266
265 182 436 -52 105 -158 176 -297 200 -177 30 -380 -82 -432 -240 l-20 -58
-51 -3 -51 -3 -3 153 -3 153 -33 3 c-20 2 -34 -2 -37 -10z m734 -93 c64 -35
127 -104 141 -154 16 -56 12 -142 -9 -186 -25 -55 -110 -130 -172 -150 -79
-26 -205 -24 -265 5 -206 100 -235 340 -56 464 68 47 107 57 212 53 83 -2 102
-6 149 -32z"/>
<path d="M4570 1800 l0 -341 33 3 32 3 5 150 5 150 260 0 260 0 3 -152 3 -153
34 0 34 0 3 328 c2 180 1 333 -1 340 -2 6 -18 12 -37 12 l-33 0 -3 -152 -3
-153 -260 0 -260 0 -5 150 -5 150 -32 3 -33 3 0 -341z"/>
<path d="M5440 1800 l0 -340 28 0 c22 0 71 45 292 270 146 149 268 271 273
270 4 0 7 -122 7 -271 l0 -270 38 3 37 3 0 335 0 335 -25 3 c-22 2 -66 -39
-294 -273 -147 -151 -272 -272 -277 -269 -6 4 -10 107 -9 262 1 142 1 263 1
270 -1 7 -15 12 -36 12 l-35 0 0 -340z"/>
<path d="M6314 2126 c-3 -8 -4 -23 -2 -33 3 -16 18 -18 150 -21 l148 -3 2
-302 3 -302 35 0 35 0 3 302 2 302 148 3 147 3 0 30 0 30 -333 3 c-283 2 -333
0 -338 -12z"/>
</g>
</svg>
